G04 #@! TF.GenerationSoftware,KiCad,Pcbnew,5.1.5-52549c5~84~ubuntu18.04.1*
G04 #@! TF.CreationDate,2020-02-01T12:36:08+09:00*
G04 #@! TF.ProjectId,builtin,6275696c-7469-46e2-9e6b-696361645f70,rev?*
G04 #@! TF.SameCoordinates,Original*
G04 #@! TF.FileFunction,Legend,Top*
G04 #@! TF.FilePolarity,Positive*
%FSLAX46Y46*%
G04 Gerber Fmt 4.6, Leading zero omitted, Abs format (unit mm)*
G04 Created by KiCad (PCBNEW 5.1.5-52549c5~84~ubuntu18.04.1) date 2020-02-01 12:36:08*
%MOMM*%
%LPD*%
G04 APERTURE LIST*
%ADD10C,0.100000*%
%ADD11C,0.120000*%
%ADD12C,0.150000*%
G04 APERTURE END LIST*
D10*
X54182857Y-19826428D02*
X54182857Y-20226428D01*
X54182857Y-19883571D02*
X54211428Y-19855000D01*
X54268571Y-19826428D01*
X54354285Y-19826428D01*
X54411428Y-19855000D01*
X54440000Y-19912142D01*
X54440000Y-20226428D01*
X54982857Y-20226428D02*
X54982857Y-19912142D01*
X54954285Y-19855000D01*
X54897142Y-19826428D01*
X54782857Y-19826428D01*
X54725714Y-19855000D01*
X54982857Y-20197857D02*
X54925714Y-20226428D01*
X54782857Y-20226428D01*
X54725714Y-20197857D01*
X54697142Y-20140714D01*
X54697142Y-20083571D01*
X54725714Y-20026428D01*
X54782857Y-19997857D01*
X54925714Y-19997857D01*
X54982857Y-19969285D01*
X55268571Y-19997857D02*
X55725714Y-19997857D01*
X56268571Y-20197857D02*
X56211428Y-20226428D01*
X56097142Y-20226428D01*
X56040000Y-20197857D01*
X56011428Y-20169285D01*
X55982857Y-20112142D01*
X55982857Y-19940714D01*
X56011428Y-19883571D01*
X56040000Y-19855000D01*
X56097142Y-19826428D01*
X56211428Y-19826428D01*
X56268571Y-19855000D01*
X56611428Y-20226428D02*
X56554285Y-20197857D01*
X56525714Y-20169285D01*
X56497142Y-20112142D01*
X56497142Y-19940714D01*
X56525714Y-19883571D01*
X56554285Y-19855000D01*
X56611428Y-19826428D01*
X56697142Y-19826428D01*
X56754285Y-19855000D01*
X56782857Y-19883571D01*
X56811428Y-19940714D01*
X56811428Y-20112142D01*
X56782857Y-20169285D01*
X56754285Y-20197857D01*
X56697142Y-20226428D01*
X56611428Y-20226428D01*
X57097142Y-19626428D02*
X57040000Y-19740714D01*
X57325714Y-20197857D02*
X57382857Y-20226428D01*
X57497142Y-20226428D01*
X57554285Y-20197857D01*
X57582857Y-20140714D01*
X57582857Y-20112142D01*
X57554285Y-20055000D01*
X57497142Y-20026428D01*
X57411428Y-20026428D01*
X57354285Y-19997857D01*
X57325714Y-19940714D01*
X57325714Y-19912142D01*
X57354285Y-19855000D01*
X57411428Y-19826428D01*
X57497142Y-19826428D01*
X57554285Y-19855000D01*
X54182857Y-21226428D02*
X54182857Y-20626428D01*
X54182857Y-20855000D02*
X54240000Y-20826428D01*
X54354285Y-20826428D01*
X54411428Y-20855000D01*
X54440000Y-20883571D01*
X54468571Y-20940714D01*
X54468571Y-21112142D01*
X54440000Y-21169285D01*
X54411428Y-21197857D01*
X54354285Y-21226428D01*
X54240000Y-21226428D01*
X54182857Y-21197857D01*
X54982857Y-20826428D02*
X54982857Y-21226428D01*
X54725714Y-20826428D02*
X54725714Y-21140714D01*
X54754285Y-21197857D01*
X54811428Y-21226428D01*
X54897142Y-21226428D01*
X54954285Y-21197857D01*
X54982857Y-21169285D01*
X55268571Y-21226428D02*
X55268571Y-20826428D01*
X55268571Y-20626428D02*
X55240000Y-20655000D01*
X55268571Y-20683571D01*
X55297142Y-20655000D01*
X55268571Y-20626428D01*
X55268571Y-20683571D01*
X55640000Y-21226428D02*
X55582857Y-21197857D01*
X55554285Y-21140714D01*
X55554285Y-20626428D01*
X55782857Y-20826428D02*
X56011428Y-20826428D01*
X55868571Y-20626428D02*
X55868571Y-21140714D01*
X55897142Y-21197857D01*
X55954285Y-21226428D01*
X56011428Y-21226428D01*
X56211428Y-20997857D02*
X56668571Y-20997857D01*
X56954285Y-21226428D02*
X56954285Y-20826428D01*
X56954285Y-20626428D02*
X56925714Y-20655000D01*
X56954285Y-20683571D01*
X56982857Y-20655000D01*
X56954285Y-20626428D01*
X56954285Y-20683571D01*
X57240000Y-20826428D02*
X57240000Y-21226428D01*
X57240000Y-20883571D02*
X57268571Y-20855000D01*
X57325714Y-20826428D01*
X57411428Y-20826428D01*
X57468571Y-20855000D01*
X57497142Y-20912142D01*
X57497142Y-21226428D01*
X58240000Y-20826428D02*
X58240000Y-21426428D01*
X58240000Y-20855000D02*
X58297142Y-20826428D01*
X58411428Y-20826428D01*
X58468571Y-20855000D01*
X58497142Y-20883571D01*
X58525714Y-20940714D01*
X58525714Y-21112142D01*
X58497142Y-21169285D01*
X58468571Y-21197857D01*
X58411428Y-21226428D01*
X58297142Y-21226428D01*
X58240000Y-21197857D01*
X58782857Y-21226428D02*
X58782857Y-20826428D01*
X58782857Y-20940714D02*
X58811428Y-20883571D01*
X58840000Y-20855000D01*
X58897142Y-20826428D01*
X58954285Y-20826428D01*
X59382857Y-21197857D02*
X59325714Y-21226428D01*
X59211428Y-21226428D01*
X59154285Y-21197857D01*
X59125714Y-21140714D01*
X59125714Y-20912142D01*
X59154285Y-20855000D01*
X59211428Y-20826428D01*
X59325714Y-20826428D01*
X59382857Y-20855000D01*
X59411428Y-20912142D01*
X59411428Y-20969285D01*
X59125714Y-21026428D01*
X60382857Y-21226428D02*
X60382857Y-20912142D01*
X60354285Y-20855000D01*
X60297142Y-20826428D01*
X60182857Y-20826428D01*
X60125714Y-20855000D01*
X60382857Y-21197857D02*
X60325714Y-21226428D01*
X60182857Y-21226428D01*
X60125714Y-21197857D01*
X60097142Y-21140714D01*
X60097142Y-21083571D01*
X60125714Y-21026428D01*
X60182857Y-20997857D01*
X60325714Y-20997857D01*
X60382857Y-20969285D01*
X60668571Y-21226428D02*
X60668571Y-20826428D01*
X60668571Y-20883571D02*
X60697142Y-20855000D01*
X60754285Y-20826428D01*
X60840000Y-20826428D01*
X60897142Y-20855000D01*
X60925714Y-20912142D01*
X60925714Y-21226428D01*
X60925714Y-20912142D02*
X60954285Y-20855000D01*
X61011428Y-20826428D01*
X61097142Y-20826428D01*
X61154285Y-20855000D01*
X61182857Y-20912142D01*
X61182857Y-21226428D01*
X61468571Y-20826428D02*
X61468571Y-21426428D01*
X61468571Y-20855000D02*
X61525714Y-20826428D01*
X61640000Y-20826428D01*
X61697142Y-20855000D01*
X61725714Y-20883571D01*
X61754285Y-20940714D01*
X61754285Y-21112142D01*
X61725714Y-21169285D01*
X61697142Y-21197857D01*
X61640000Y-21226428D01*
X61525714Y-21226428D01*
X61468571Y-21197857D01*
X54497142Y-22226428D02*
X54154285Y-22226428D01*
X54325714Y-22226428D02*
X54325714Y-21626428D01*
X54268571Y-21712142D01*
X54211428Y-21769285D01*
X54154285Y-21797857D01*
X54754285Y-22169285D02*
X54782857Y-22197857D01*
X54754285Y-22226428D01*
X54725714Y-22197857D01*
X54754285Y-22169285D01*
X54754285Y-22226428D01*
X55154285Y-21626428D02*
X55211428Y-21626428D01*
X55268571Y-21655000D01*
X55297142Y-21683571D01*
X55325714Y-21740714D01*
X55354285Y-21855000D01*
X55354285Y-21997857D01*
X55325714Y-22112142D01*
X55297142Y-22169285D01*
X55268571Y-22197857D01*
X55211428Y-22226428D01*
X55154285Y-22226428D01*
X55097142Y-22197857D01*
X55068571Y-22169285D01*
X55040000Y-22112142D01*
X55011428Y-21997857D01*
X55011428Y-21855000D01*
X55040000Y-21740714D01*
X55068571Y-21683571D01*
X55097142Y-21655000D01*
X55154285Y-21626428D01*
X55611428Y-22169285D02*
X55640000Y-22197857D01*
X55611428Y-22226428D01*
X55582857Y-22197857D01*
X55611428Y-22169285D01*
X55611428Y-22226428D01*
X56011428Y-21626428D02*
X56068571Y-21626428D01*
X56125714Y-21655000D01*
X56154285Y-21683571D01*
X56182857Y-21740714D01*
X56211428Y-21855000D01*
X56211428Y-21997857D01*
X56182857Y-22112142D01*
X56154285Y-22169285D01*
X56125714Y-22197857D01*
X56068571Y-22226428D01*
X56011428Y-22226428D01*
X55954285Y-22197857D01*
X55925714Y-22169285D01*
X55897142Y-22112142D01*
X55868571Y-21997857D01*
X55868571Y-21855000D01*
X55897142Y-21740714D01*
X55925714Y-21683571D01*
X55954285Y-21655000D01*
X56011428Y-21626428D01*
D11*
X45620000Y-9620000D02*
X45950000Y-9620000D01*
X45620000Y-3080000D02*
X45620000Y-9620000D01*
X45950000Y-3080000D02*
X45620000Y-3080000D01*
X48360000Y-9620000D02*
X48030000Y-9620000D01*
X48360000Y-3080000D02*
X48360000Y-9620000D01*
X48030000Y-3080000D02*
X48360000Y-3080000D01*
X50740000Y-6290000D02*
X52070000Y-6290000D01*
X50740000Y-7620000D02*
X50740000Y-6290000D01*
X50740000Y-8890000D02*
X53400000Y-8890000D01*
X53400000Y-8890000D02*
X53400000Y-8950000D01*
X50740000Y-8890000D02*
X50740000Y-8950000D01*
X50740000Y-8950000D02*
X53400000Y-8950000D01*
X48360000Y-13240000D02*
X48030000Y-13240000D01*
X48360000Y-19780000D02*
X48360000Y-13240000D01*
X48030000Y-19780000D02*
X48360000Y-19780000D01*
X45620000Y-13240000D02*
X45950000Y-13240000D01*
X45620000Y-19780000D02*
X45620000Y-13240000D01*
X45950000Y-19780000D02*
X45620000Y-19780000D01*
X61020000Y-11490000D02*
X59690000Y-11490000D01*
X61020000Y-10160000D02*
X61020000Y-11490000D01*
X61020000Y-8890000D02*
X58360000Y-8890000D01*
X58360000Y-8890000D02*
X58360000Y-6290000D01*
X61020000Y-8890000D02*
X61020000Y-6290000D01*
X61020000Y-6290000D02*
X58360000Y-6290000D01*
X33120000Y-3080000D02*
X32790000Y-3080000D01*
X33120000Y-9620000D02*
X33120000Y-3080000D01*
X32790000Y-9620000D02*
X33120000Y-9620000D01*
X30380000Y-3080000D02*
X30710000Y-3080000D01*
X30380000Y-9620000D02*
X30380000Y-3080000D01*
X30710000Y-9620000D02*
X30380000Y-9620000D01*
X35790000Y-9620000D02*
X35460000Y-9620000D01*
X35460000Y-9620000D02*
X35460000Y-3080000D01*
X35460000Y-3080000D02*
X35790000Y-3080000D01*
X37870000Y-9620000D02*
X38200000Y-9620000D01*
X38200000Y-9620000D02*
X38200000Y-3080000D01*
X38200000Y-3080000D02*
X37870000Y-3080000D01*
X43280000Y-3080000D02*
X42950000Y-3080000D01*
X43280000Y-9620000D02*
X43280000Y-3080000D01*
X42950000Y-9620000D02*
X43280000Y-9620000D01*
X40540000Y-3080000D02*
X40870000Y-3080000D01*
X40540000Y-9620000D02*
X40540000Y-3080000D01*
X40870000Y-9620000D02*
X40540000Y-9620000D01*
X2480000Y-6410000D02*
X7680000Y-6410000D01*
X2480000Y-6350000D02*
X2480000Y-6410000D01*
X7680000Y-3750000D02*
X7680000Y-6410000D01*
X2480000Y-6350000D02*
X5080000Y-6350000D01*
X5080000Y-6350000D02*
X5080000Y-3750000D01*
X5080000Y-3750000D02*
X7680000Y-3750000D01*
X2480000Y-5080000D02*
X2480000Y-3750000D01*
X2480000Y-3750000D02*
X3810000Y-3750000D01*
X2480000Y-8950000D02*
X7680000Y-8950000D01*
X2480000Y-8890000D02*
X2480000Y-8950000D01*
X7680000Y-6290000D02*
X7680000Y-8950000D01*
X2480000Y-8890000D02*
X5080000Y-8890000D01*
X5080000Y-8890000D02*
X5080000Y-6290000D01*
X5080000Y-6290000D02*
X7680000Y-6290000D01*
X2480000Y-7620000D02*
X2480000Y-6290000D01*
X2480000Y-6290000D02*
X3810000Y-6290000D01*
X61020000Y-3750000D02*
X58360000Y-3750000D01*
X61020000Y-3810000D02*
X61020000Y-3750000D01*
X58360000Y-3810000D02*
X58360000Y-3750000D01*
X61020000Y-3810000D02*
X58360000Y-3810000D01*
X61020000Y-5080000D02*
X61020000Y-6410000D01*
X61020000Y-6410000D02*
X59690000Y-6410000D01*
X32790000Y-13240000D02*
X33120000Y-13240000D01*
X33120000Y-13240000D02*
X33120000Y-19780000D01*
X33120000Y-19780000D02*
X32790000Y-19780000D01*
X30710000Y-13240000D02*
X30380000Y-13240000D01*
X30380000Y-13240000D02*
X30380000Y-19780000D01*
X30380000Y-19780000D02*
X30710000Y-19780000D01*
X35790000Y-19780000D02*
X35460000Y-19780000D01*
X35460000Y-19780000D02*
X35460000Y-13240000D01*
X35460000Y-13240000D02*
X35790000Y-13240000D01*
X37870000Y-19780000D02*
X38200000Y-19780000D01*
X38200000Y-19780000D02*
X38200000Y-13240000D01*
X38200000Y-13240000D02*
X37870000Y-13240000D01*
X42950000Y-13240000D02*
X43280000Y-13240000D01*
X43280000Y-13240000D02*
X43280000Y-19780000D01*
X43280000Y-19780000D02*
X42950000Y-19780000D01*
X40870000Y-13240000D02*
X40540000Y-13240000D01*
X40540000Y-13240000D02*
X40540000Y-19780000D01*
X40540000Y-19780000D02*
X40870000Y-19780000D01*
X58480000Y-11370000D02*
X55820000Y-11370000D01*
X58480000Y-16510000D02*
X58480000Y-11370000D01*
X55820000Y-16510000D02*
X55820000Y-11370000D01*
X58480000Y-16510000D02*
X55820000Y-16510000D01*
X58480000Y-17780000D02*
X58480000Y-19110000D01*
X58480000Y-19110000D02*
X57150000Y-19110000D01*
X58480000Y-11490000D02*
X57150000Y-11490000D01*
X58480000Y-10160000D02*
X58480000Y-11490000D01*
X58480000Y-8890000D02*
X55820000Y-8890000D01*
X55820000Y-8890000D02*
X55820000Y-3750000D01*
X58480000Y-8890000D02*
X58480000Y-3750000D01*
X58480000Y-3750000D02*
X55820000Y-3750000D01*
X61020000Y-19110000D02*
X59690000Y-19110000D01*
X61020000Y-17780000D02*
X61020000Y-19110000D01*
X61020000Y-16510000D02*
X58360000Y-16510000D01*
X58360000Y-16510000D02*
X58360000Y-11370000D01*
X61020000Y-16510000D02*
X61020000Y-11370000D01*
X61020000Y-11370000D02*
X58360000Y-11370000D01*
X17720000Y-15510000D02*
G75*
G02X17720000Y-17510000I0J-1000000D01*
G01*
X17720000Y-17510000D02*
X17720000Y-19160000D01*
X17720000Y-19160000D02*
X28000000Y-19160000D01*
X28000000Y-19160000D02*
X28000000Y-13860000D01*
X28000000Y-13860000D02*
X17720000Y-13860000D01*
X17720000Y-13860000D02*
X17720000Y-15510000D01*
X17660000Y-21650000D02*
X28060000Y-21650000D01*
X28060000Y-21650000D02*
X28060000Y-11370000D01*
X28060000Y-11370000D02*
X17660000Y-11370000D01*
X17660000Y-11370000D02*
X17660000Y-21650000D01*
X2480000Y-19110000D02*
X7680000Y-19110000D01*
X2480000Y-11430000D02*
X2480000Y-19110000D01*
X7680000Y-8830000D02*
X7680000Y-19110000D01*
X2480000Y-11430000D02*
X5080000Y-11430000D01*
X5080000Y-11430000D02*
X5080000Y-8830000D01*
X5080000Y-8830000D02*
X7680000Y-8830000D01*
X2480000Y-10160000D02*
X2480000Y-8830000D01*
X2480000Y-8830000D02*
X3810000Y-8830000D01*
X12760000Y-14030000D02*
X11430000Y-14030000D01*
X12760000Y-12700000D02*
X12760000Y-14030000D01*
X12760000Y-11430000D02*
X10100000Y-11430000D01*
X10100000Y-11430000D02*
X10100000Y-8830000D01*
X12760000Y-11430000D02*
X12760000Y-8830000D01*
X12760000Y-8830000D02*
X10100000Y-8830000D01*
X53400000Y-16570000D02*
X52070000Y-16570000D01*
X53400000Y-15240000D02*
X53400000Y-16570000D01*
X53400000Y-13970000D02*
X50740000Y-13970000D01*
X50740000Y-13970000D02*
X50740000Y-8830000D01*
X53400000Y-13970000D02*
X53400000Y-8830000D01*
X53400000Y-8830000D02*
X50740000Y-8830000D01*
X15120000Y-1210000D02*
X15120000Y-11490000D01*
X28060000Y-1210000D02*
X15120000Y-1210000D01*
X28060000Y-11490000D02*
X28060000Y-1210000D01*
X15120000Y-11490000D02*
X28060000Y-11490000D01*
X15180000Y-3700000D02*
X15180000Y-5350000D01*
X28000000Y-3700000D02*
X15180000Y-3700000D01*
X28000000Y-9000000D02*
X28000000Y-3700000D01*
X15180000Y-9000000D02*
X28000000Y-9000000D01*
X15180000Y-7350000D02*
X15180000Y-9000000D01*
X15180000Y-5350000D02*
G75*
G02X15180000Y-7350000I0J-1000000D01*
G01*
D12*
X44807142Y-6516666D02*
X44854761Y-6564285D01*
X44902380Y-6707142D01*
X44902380Y-6802380D01*
X44854761Y-6945238D01*
X44759523Y-7040476D01*
X44664285Y-7088095D01*
X44473809Y-7135714D01*
X44330952Y-7135714D01*
X44140476Y-7088095D01*
X44045238Y-7040476D01*
X43950000Y-6945238D01*
X43902380Y-6802380D01*
X43902380Y-6707142D01*
X43950000Y-6564285D01*
X43997619Y-6516666D01*
X44235714Y-5659523D02*
X44902380Y-5659523D01*
X43854761Y-5897619D02*
X44569047Y-6135714D01*
X44569047Y-5516666D01*
X51736666Y-4742380D02*
X51736666Y-5456666D01*
X51689047Y-5599523D01*
X51593809Y-5694761D01*
X51450952Y-5742380D01*
X51355714Y-5742380D01*
X52689047Y-4742380D02*
X52212857Y-4742380D01*
X52165238Y-5218571D01*
X52212857Y-5170952D01*
X52308095Y-5123333D01*
X52546190Y-5123333D01*
X52641428Y-5170952D01*
X52689047Y-5218571D01*
X52736666Y-5313809D01*
X52736666Y-5551904D01*
X52689047Y-5647142D01*
X52641428Y-5694761D01*
X52546190Y-5742380D01*
X52308095Y-5742380D01*
X52212857Y-5694761D01*
X52165238Y-5647142D01*
X45072380Y-16676666D02*
X44596190Y-17010000D01*
X45072380Y-17248095D02*
X44072380Y-17248095D01*
X44072380Y-16867142D01*
X44120000Y-16771904D01*
X44167619Y-16724285D01*
X44262857Y-16676666D01*
X44405714Y-16676666D01*
X44500952Y-16724285D01*
X44548571Y-16771904D01*
X44596190Y-16867142D01*
X44596190Y-17248095D01*
X44405714Y-15819523D02*
X45072380Y-15819523D01*
X44024761Y-16057619D02*
X44739047Y-16295714D01*
X44739047Y-15676666D01*
X61682380Y-9223333D02*
X62396666Y-9223333D01*
X62539523Y-9270952D01*
X62634761Y-9366190D01*
X62682380Y-9509047D01*
X62682380Y-9604285D01*
X61682380Y-8842380D02*
X61682380Y-8223333D01*
X62063333Y-8556666D01*
X62063333Y-8413809D01*
X62110952Y-8318571D01*
X62158571Y-8270952D01*
X62253809Y-8223333D01*
X62491904Y-8223333D01*
X62587142Y-8270952D01*
X62634761Y-8318571D01*
X62682380Y-8413809D01*
X62682380Y-8699523D01*
X62634761Y-8794761D01*
X62587142Y-8842380D01*
X29737142Y-6516666D02*
X29784761Y-6564285D01*
X29832380Y-6707142D01*
X29832380Y-6802380D01*
X29784761Y-6945238D01*
X29689523Y-7040476D01*
X29594285Y-7088095D01*
X29403809Y-7135714D01*
X29260952Y-7135714D01*
X29070476Y-7088095D01*
X28975238Y-7040476D01*
X28880000Y-6945238D01*
X28832380Y-6802380D01*
X28832380Y-6707142D01*
X28880000Y-6564285D01*
X28927619Y-6516666D01*
X29832380Y-5564285D02*
X29832380Y-6135714D01*
X29832380Y-5850000D02*
X28832380Y-5850000D01*
X28975238Y-5945238D01*
X29070476Y-6040476D01*
X29118095Y-6135714D01*
X34817142Y-6516666D02*
X34864761Y-6564285D01*
X34912380Y-6707142D01*
X34912380Y-6802380D01*
X34864761Y-6945238D01*
X34769523Y-7040476D01*
X34674285Y-7088095D01*
X34483809Y-7135714D01*
X34340952Y-7135714D01*
X34150476Y-7088095D01*
X34055238Y-7040476D01*
X33960000Y-6945238D01*
X33912380Y-6802380D01*
X33912380Y-6707142D01*
X33960000Y-6564285D01*
X34007619Y-6516666D01*
X34007619Y-6135714D02*
X33960000Y-6088095D01*
X33912380Y-5992857D01*
X33912380Y-5754761D01*
X33960000Y-5659523D01*
X34007619Y-5611904D01*
X34102857Y-5564285D01*
X34198095Y-5564285D01*
X34340952Y-5611904D01*
X34912380Y-6183333D01*
X34912380Y-5564285D01*
X39897142Y-6516666D02*
X39944761Y-6564285D01*
X39992380Y-6707142D01*
X39992380Y-6802380D01*
X39944761Y-6945238D01*
X39849523Y-7040476D01*
X39754285Y-7088095D01*
X39563809Y-7135714D01*
X39420952Y-7135714D01*
X39230476Y-7088095D01*
X39135238Y-7040476D01*
X39040000Y-6945238D01*
X38992380Y-6802380D01*
X38992380Y-6707142D01*
X39040000Y-6564285D01*
X39087619Y-6516666D01*
X38992380Y-6183333D02*
X38992380Y-5564285D01*
X39373333Y-5897619D01*
X39373333Y-5754761D01*
X39420952Y-5659523D01*
X39468571Y-5611904D01*
X39563809Y-5564285D01*
X39801904Y-5564285D01*
X39897142Y-5611904D01*
X39944761Y-5659523D01*
X39992380Y-5754761D01*
X39992380Y-6040476D01*
X39944761Y-6135714D01*
X39897142Y-6183333D01*
X4746666Y-2202380D02*
X4746666Y-2916666D01*
X4699047Y-3059523D01*
X4603809Y-3154761D01*
X4460952Y-3202380D01*
X4365714Y-3202380D01*
X5746666Y-3202380D02*
X5175238Y-3202380D01*
X5460952Y-3202380D02*
X5460952Y-2202380D01*
X5365714Y-2345238D01*
X5270476Y-2440476D01*
X5175238Y-2488095D01*
X8556666Y-7072380D02*
X8556666Y-7786666D01*
X8509047Y-7929523D01*
X8413809Y-8024761D01*
X8270952Y-8072380D01*
X8175714Y-8072380D01*
X8985238Y-7167619D02*
X9032857Y-7120000D01*
X9128095Y-7072380D01*
X9366190Y-7072380D01*
X9461428Y-7120000D01*
X9509047Y-7167619D01*
X9556666Y-7262857D01*
X9556666Y-7358095D01*
X9509047Y-7500952D01*
X8937619Y-8072380D01*
X9556666Y-8072380D01*
X61682380Y-5413333D02*
X62396666Y-5413333D01*
X62539523Y-5460952D01*
X62634761Y-5556190D01*
X62682380Y-5699047D01*
X62682380Y-5794285D01*
X62015714Y-4508571D02*
X62682380Y-4508571D01*
X61634761Y-4746666D02*
X62349047Y-4984761D01*
X62349047Y-4365714D01*
X29662380Y-16676666D02*
X29186190Y-17010000D01*
X29662380Y-17248095D02*
X28662380Y-17248095D01*
X28662380Y-16867142D01*
X28710000Y-16771904D01*
X28757619Y-16724285D01*
X28852857Y-16676666D01*
X28995714Y-16676666D01*
X29090952Y-16724285D01*
X29138571Y-16771904D01*
X29186190Y-16867142D01*
X29186190Y-17248095D01*
X29662380Y-15724285D02*
X29662380Y-16295714D01*
X29662380Y-16010000D02*
X28662380Y-16010000D01*
X28805238Y-16105238D01*
X28900476Y-16200476D01*
X28948095Y-16295714D01*
X34912380Y-16676666D02*
X34436190Y-17010000D01*
X34912380Y-17248095D02*
X33912380Y-17248095D01*
X33912380Y-16867142D01*
X33960000Y-16771904D01*
X34007619Y-16724285D01*
X34102857Y-16676666D01*
X34245714Y-16676666D01*
X34340952Y-16724285D01*
X34388571Y-16771904D01*
X34436190Y-16867142D01*
X34436190Y-17248095D01*
X34007619Y-16295714D02*
X33960000Y-16248095D01*
X33912380Y-16152857D01*
X33912380Y-15914761D01*
X33960000Y-15819523D01*
X34007619Y-15771904D01*
X34102857Y-15724285D01*
X34198095Y-15724285D01*
X34340952Y-15771904D01*
X34912380Y-16343333D01*
X34912380Y-15724285D01*
X39822380Y-16676666D02*
X39346190Y-17010000D01*
X39822380Y-17248095D02*
X38822380Y-17248095D01*
X38822380Y-16867142D01*
X38870000Y-16771904D01*
X38917619Y-16724285D01*
X39012857Y-16676666D01*
X39155714Y-16676666D01*
X39250952Y-16724285D01*
X39298571Y-16771904D01*
X39346190Y-16867142D01*
X39346190Y-17248095D01*
X38822380Y-16343333D02*
X38822380Y-15724285D01*
X39203333Y-16057619D01*
X39203333Y-15914761D01*
X39250952Y-15819523D01*
X39298571Y-15771904D01*
X39393809Y-15724285D01*
X39631904Y-15724285D01*
X39727142Y-15771904D01*
X39774761Y-15819523D01*
X39822380Y-15914761D01*
X39822380Y-16200476D01*
X39774761Y-16295714D01*
X39727142Y-16343333D01*
X55062380Y-15835238D02*
X54586190Y-16168571D01*
X55062380Y-16406666D02*
X54062380Y-16406666D01*
X54062380Y-16025714D01*
X54110000Y-15930476D01*
X54157619Y-15882857D01*
X54252857Y-15835238D01*
X54395714Y-15835238D01*
X54490952Y-15882857D01*
X54538571Y-15930476D01*
X54586190Y-16025714D01*
X54586190Y-16406666D01*
X54062380Y-15549523D02*
X55062380Y-15216190D01*
X54062380Y-14882857D01*
X55062380Y-14025714D02*
X55062380Y-14597142D01*
X55062380Y-14311428D02*
X54062380Y-14311428D01*
X54205238Y-14406666D01*
X54300476Y-14501904D01*
X54348095Y-14597142D01*
X55062380Y-8215238D02*
X54586190Y-8548571D01*
X55062380Y-8786666D02*
X54062380Y-8786666D01*
X54062380Y-8405714D01*
X54110000Y-8310476D01*
X54157619Y-8262857D01*
X54252857Y-8215238D01*
X54395714Y-8215238D01*
X54490952Y-8262857D01*
X54538571Y-8310476D01*
X54586190Y-8405714D01*
X54586190Y-8786666D01*
X54062380Y-7929523D02*
X55062380Y-7596190D01*
X54062380Y-7262857D01*
X54157619Y-6977142D02*
X54110000Y-6929523D01*
X54062380Y-6834285D01*
X54062380Y-6596190D01*
X54110000Y-6500952D01*
X54157619Y-6453333D01*
X54252857Y-6405714D01*
X54348095Y-6405714D01*
X54490952Y-6453333D01*
X55062380Y-7024761D01*
X55062380Y-6405714D01*
X62682380Y-15835238D02*
X62206190Y-16168571D01*
X62682380Y-16406666D02*
X61682380Y-16406666D01*
X61682380Y-16025714D01*
X61730000Y-15930476D01*
X61777619Y-15882857D01*
X61872857Y-15835238D01*
X62015714Y-15835238D01*
X62110952Y-15882857D01*
X62158571Y-15930476D01*
X62206190Y-16025714D01*
X62206190Y-16406666D01*
X61682380Y-15549523D02*
X62682380Y-15216190D01*
X61682380Y-14882857D01*
X61682380Y-14644761D02*
X61682380Y-14025714D01*
X62063333Y-14359047D01*
X62063333Y-14216190D01*
X62110952Y-14120952D01*
X62158571Y-14073333D01*
X62253809Y-14025714D01*
X62491904Y-14025714D01*
X62587142Y-14073333D01*
X62634761Y-14120952D01*
X62682380Y-14216190D01*
X62682380Y-14501904D01*
X62634761Y-14597142D01*
X62587142Y-14644761D01*
X16172380Y-17271904D02*
X16981904Y-17271904D01*
X17077142Y-17224285D01*
X17124761Y-17176666D01*
X17172380Y-17081428D01*
X17172380Y-16890952D01*
X17124761Y-16795714D01*
X17077142Y-16748095D01*
X16981904Y-16700476D01*
X16172380Y-16700476D01*
X17172380Y-15700476D02*
X17172380Y-16271904D01*
X17172380Y-15986190D02*
X16172380Y-15986190D01*
X16315238Y-16081428D01*
X16410476Y-16176666D01*
X16458095Y-16271904D01*
X4318095Y-19772380D02*
X4318095Y-20581904D01*
X4365714Y-20677142D01*
X4413333Y-20724761D01*
X4508571Y-20772380D01*
X4699047Y-20772380D01*
X4794285Y-20724761D01*
X4841904Y-20677142D01*
X4889523Y-20581904D01*
X4889523Y-19772380D01*
X5318095Y-19867619D02*
X5365714Y-19820000D01*
X5460952Y-19772380D01*
X5699047Y-19772380D01*
X5794285Y-19820000D01*
X5841904Y-19867619D01*
X5889523Y-19962857D01*
X5889523Y-20058095D01*
X5841904Y-20200952D01*
X5270476Y-20772380D01*
X5889523Y-20772380D01*
X10596666Y-14482380D02*
X10596666Y-15196666D01*
X10549047Y-15339523D01*
X10453809Y-15434761D01*
X10310952Y-15482380D01*
X10215714Y-15482380D01*
X11072857Y-15482380D02*
X11072857Y-14482380D01*
X11453809Y-14482380D01*
X11549047Y-14530000D01*
X11596666Y-14577619D01*
X11644285Y-14672857D01*
X11644285Y-14815714D01*
X11596666Y-14910952D01*
X11549047Y-14958571D01*
X11453809Y-15006190D01*
X11072857Y-15006190D01*
X12596666Y-15482380D02*
X12025238Y-15482380D01*
X12310952Y-15482380D02*
X12310952Y-14482380D01*
X12215714Y-14625238D01*
X12120476Y-14720476D01*
X12025238Y-14768095D01*
X51236666Y-17022380D02*
X51236666Y-17736666D01*
X51189047Y-17879523D01*
X51093809Y-17974761D01*
X50950952Y-18022380D01*
X50855714Y-18022380D01*
X51712857Y-18022380D02*
X51712857Y-17022380D01*
X52093809Y-17022380D01*
X52189047Y-17070000D01*
X52236666Y-17117619D01*
X52284285Y-17212857D01*
X52284285Y-17355714D01*
X52236666Y-17450952D01*
X52189047Y-17498571D01*
X52093809Y-17546190D01*
X51712857Y-17546190D01*
X52665238Y-17117619D02*
X52712857Y-17070000D01*
X52808095Y-17022380D01*
X53046190Y-17022380D01*
X53141428Y-17070000D01*
X53189047Y-17117619D01*
X53236666Y-17212857D01*
X53236666Y-17308095D01*
X53189047Y-17450952D01*
X52617619Y-18022380D01*
X53236666Y-18022380D01*
X14632380Y-7088095D02*
X13632380Y-7088095D01*
X14632380Y-6516666D02*
X14060952Y-6945238D01*
X13632380Y-6516666D02*
X14203809Y-7088095D01*
X14632380Y-5564285D02*
X14632380Y-6135714D01*
X14632380Y-5850000D02*
X13632380Y-5850000D01*
X13775238Y-5945238D01*
X13870476Y-6040476D01*
X13918095Y-6135714D01*
M02*
