G04 #@! TF.GenerationSoftware,KiCad,Pcbnew,5.1.5-52549c5~84~ubuntu18.04.1*
G04 #@! TF.CreationDate,2020-02-01T12:36:08+09:00*
G04 #@! TF.ProjectId,builtin,6275696c-7469-46e2-9e6b-696361645f70,rev?*
G04 #@! TF.SameCoordinates,Original*
G04 #@! TF.FileFunction,Copper,L2,Bot*
G04 #@! TF.FilePolarity,Positive*
%FSLAX46Y46*%
G04 Gerber Fmt 4.6, Leading zero omitted, Abs format (unit mm)*
G04 Created by KiCad (PCBNEW 5.1.5-52549c5~84~ubuntu18.04.1) date 2020-02-01 12:36:08*
%MOMM*%
%LPD*%
G04 APERTURE LIST*
%ADD10O,1.600000X1.600000*%
%ADD11C,1.600000*%
%ADD12R,1.700000X1.700000*%
%ADD13O,1.700000X1.700000*%
%ADD14R,1.600000X1.600000*%
%ADD15C,0.250000*%
G04 APERTURE END LIST*
D10*
X46990000Y-10160000D03*
D11*
X46990000Y-2540000D03*
X44450000Y-20320000D03*
X39370000Y-20320000D03*
X34290000Y-20320000D03*
X44450000Y-12700000D03*
X39370000Y-12700000D03*
X34290000Y-12700000D03*
X44450000Y-10160000D03*
X39370000Y-10160000D03*
X34290000Y-10160000D03*
X44450000Y-2540000D03*
X39370000Y-2540000D03*
X34290000Y-2540000D03*
D12*
X52070000Y-7620000D03*
D10*
X46990000Y-12700000D03*
D11*
X46990000Y-20320000D03*
D13*
X59690000Y-7620000D03*
D12*
X59690000Y-10160000D03*
D10*
X31750000Y-2540000D03*
D11*
X31750000Y-10160000D03*
X36830000Y-10160000D03*
D10*
X36830000Y-2540000D03*
X41910000Y-2540000D03*
D11*
X41910000Y-10160000D03*
D12*
X3810000Y-5080000D03*
D13*
X6350000Y-5080000D03*
D12*
X3810000Y-7620000D03*
D13*
X6350000Y-7620000D03*
D12*
X59690000Y-5080000D03*
D11*
X31750000Y-12700000D03*
D10*
X31750000Y-20320000D03*
D11*
X36830000Y-20320000D03*
D10*
X36830000Y-12700000D03*
D11*
X41910000Y-12700000D03*
D10*
X41910000Y-20320000D03*
D12*
X57150000Y-17780000D03*
D13*
X57150000Y-15240000D03*
X57150000Y-12700000D03*
X57150000Y-5080000D03*
X57150000Y-7620000D03*
D12*
X57150000Y-10160000D03*
D13*
X59690000Y-12700000D03*
X59690000Y-15240000D03*
D12*
X59690000Y-17780000D03*
D14*
X19050000Y-20320000D03*
D10*
X26670000Y-12700000D03*
X21590000Y-20320000D03*
X24130000Y-12700000D03*
X24130000Y-20320000D03*
X21590000Y-12700000D03*
X26670000Y-20320000D03*
X19050000Y-12700000D03*
D12*
X3810000Y-10160000D03*
D13*
X6350000Y-10160000D03*
X3810000Y-12700000D03*
X6350000Y-12700000D03*
X3810000Y-15240000D03*
X6350000Y-15240000D03*
X3810000Y-17780000D03*
X6350000Y-17780000D03*
X11430000Y-10160000D03*
D12*
X11430000Y-12700000D03*
D13*
X52070000Y-10160000D03*
X52070000Y-12700000D03*
D12*
X52070000Y-15240000D03*
D10*
X16510000Y-2540000D03*
X26670000Y-10160000D03*
X19050000Y-2540000D03*
X24130000Y-10160000D03*
X21590000Y-2540000D03*
X21590000Y-10160000D03*
X24130000Y-2540000D03*
X19050000Y-10160000D03*
X26670000Y-2540000D03*
D14*
X16510000Y-10160000D03*
D15*
X57999999Y-11850001D02*
X57150000Y-12700000D01*
X60610003Y-11524999D02*
X58325001Y-11524999D01*
X60865001Y-11270001D02*
X60610003Y-11524999D01*
X60865001Y-3969999D02*
X60865001Y-11270001D01*
X60800001Y-3904999D02*
X60865001Y-3969999D01*
X56585999Y-3904999D02*
X60800001Y-3904999D01*
X55403589Y-5087409D02*
X56585999Y-3904999D01*
X58325001Y-11524999D02*
X57999999Y-11850001D01*
X55403589Y-8984999D02*
X55403589Y-5087409D01*
X50894999Y-8984999D02*
X55403589Y-8984999D01*
X45575001Y-3665001D02*
X50894999Y-8984999D01*
X32875001Y-3665001D02*
X45575001Y-3665001D01*
X31750000Y-2540000D02*
X32875001Y-3665001D01*
X4659999Y-14390001D02*
X3810000Y-15240000D01*
X4985001Y-14064999D02*
X4659999Y-14390001D01*
X6724003Y-14064999D02*
X4985001Y-14064999D01*
X7525001Y-13264001D02*
X6724003Y-14064999D01*
X7525001Y-12325997D02*
X7525001Y-13264001D01*
X10865999Y-8984999D02*
X7525001Y-12325997D01*
X21890003Y-8984999D02*
X10865999Y-8984999D01*
X29460003Y-1414999D02*
X21890003Y-8984999D01*
X35704999Y-1414999D02*
X29460003Y-1414999D01*
X36830000Y-2540000D02*
X35704999Y-1414999D01*
X36030001Y-11900001D02*
X36830000Y-12700000D01*
X35704999Y-11574999D02*
X36030001Y-11900001D01*
X23004999Y-12950003D02*
X23004999Y-12159999D01*
X23589999Y-11574999D02*
X35704999Y-11574999D01*
X23004999Y-12159999D02*
X23589999Y-11574999D01*
X18175002Y-17780000D02*
X23004999Y-12950003D01*
X6350000Y-17780000D02*
X18175002Y-17780000D01*
X23589999Y-9034999D02*
X40784999Y-9034999D01*
X41110001Y-9360001D02*
X41910000Y-10160000D01*
X23004999Y-10700001D02*
X23004999Y-9619999D01*
X22130001Y-11574999D02*
X23004999Y-10700001D01*
X21049999Y-11574999D02*
X22130001Y-11574999D01*
X20320000Y-12304998D02*
X21049999Y-11574999D01*
X40784999Y-9034999D02*
X41110001Y-9360001D01*
X16810003Y-16604999D02*
X20320000Y-13095002D01*
X20320000Y-13095002D02*
X20320000Y-12304998D01*
X4985001Y-16604999D02*
X16810003Y-16604999D01*
X23004999Y-9619999D02*
X23589999Y-9034999D01*
X3810000Y-17780000D02*
X4985001Y-16604999D01*
X5500001Y-16089999D02*
X6350000Y-15240000D01*
X4863591Y-16089999D02*
X5500001Y-16089999D01*
X4443590Y-16510000D02*
X4863591Y-16089999D01*
X3340998Y-16510000D02*
X4443590Y-16510000D01*
X2634999Y-17215999D02*
X3340998Y-16510000D01*
X2634999Y-18344001D02*
X2634999Y-17215999D01*
X3245999Y-18955001D02*
X2634999Y-18344001D01*
X6914001Y-18955001D02*
X3245999Y-18955001D01*
X51385999Y-18894999D02*
X6974003Y-18894999D01*
X55040998Y-15240000D02*
X51385999Y-18894999D01*
X6974003Y-18894999D02*
X6914001Y-18955001D01*
X57150000Y-15240000D02*
X55040998Y-15240000D01*
X53170000Y-15240000D02*
X52070000Y-15240000D01*
X53245001Y-11779997D02*
X53245001Y-15164999D01*
X56039999Y-8984999D02*
X53245001Y-11779997D01*
X57524003Y-8984999D02*
X56039999Y-8984999D01*
X58325001Y-8184001D02*
X57524003Y-8984999D01*
X58325001Y-5344999D02*
X58325001Y-8184001D01*
X53245001Y-15164999D02*
X53170000Y-15240000D01*
X58590000Y-5080000D02*
X58325001Y-5344999D01*
X59690000Y-5080000D02*
X58590000Y-5080000D01*
X26670000Y-15240000D02*
X24130000Y-12700000D01*
X52070000Y-15240000D02*
X26670000Y-15240000D01*
M02*
