G04 #@! TF.GenerationSoftware,KiCad,Pcbnew,5.1.5-52549c5~84~ubuntu18.04.1*
G04 #@! TF.CreationDate,2020-02-01T12:36:08+09:00*
G04 #@! TF.ProjectId,builtin,6275696c-7469-46e2-9e6b-696361645f70,rev?*
G04 #@! TF.SameCoordinates,Original*
G04 #@! TF.FileFunction,Copper,L1,Top*
G04 #@! TF.FilePolarity,Positive*
%FSLAX46Y46*%
G04 Gerber Fmt 4.6, Leading zero omitted, Abs format (unit mm)*
G04 Created by KiCad (PCBNEW 5.1.5-52549c5~84~ubuntu18.04.1) date 2020-02-01 12:36:08*
%MOMM*%
%LPD*%
G04 APERTURE LIST*
%ADD10O,1.600000X1.600000*%
%ADD11C,1.600000*%
%ADD12R,1.700000X1.700000*%
%ADD13O,1.700000X1.700000*%
%ADD14R,1.600000X1.600000*%
%ADD15C,0.250000*%
G04 APERTURE END LIST*
D10*
X46990000Y-10160000D03*
D11*
X46990000Y-2540000D03*
X44450000Y-20320000D03*
X39370000Y-20320000D03*
X34290000Y-20320000D03*
X44450000Y-12700000D03*
X39370000Y-12700000D03*
X34290000Y-12700000D03*
X44450000Y-10160000D03*
X39370000Y-10160000D03*
X34290000Y-10160000D03*
X44450000Y-2540000D03*
X39370000Y-2540000D03*
X34290000Y-2540000D03*
D12*
X52070000Y-7620000D03*
D10*
X46990000Y-12700000D03*
D11*
X46990000Y-20320000D03*
D13*
X59690000Y-7620000D03*
D12*
X59690000Y-10160000D03*
D10*
X31750000Y-2540000D03*
D11*
X31750000Y-10160000D03*
X36830000Y-10160000D03*
D10*
X36830000Y-2540000D03*
X41910000Y-2540000D03*
D11*
X41910000Y-10160000D03*
D12*
X3810000Y-5080000D03*
D13*
X6350000Y-5080000D03*
D12*
X3810000Y-7620000D03*
D13*
X6350000Y-7620000D03*
D12*
X59690000Y-5080000D03*
D11*
X31750000Y-12700000D03*
D10*
X31750000Y-20320000D03*
D11*
X36830000Y-20320000D03*
D10*
X36830000Y-12700000D03*
D11*
X41910000Y-12700000D03*
D10*
X41910000Y-20320000D03*
D12*
X57150000Y-17780000D03*
D13*
X57150000Y-15240000D03*
X57150000Y-12700000D03*
X57150000Y-5080000D03*
X57150000Y-7620000D03*
D12*
X57150000Y-10160000D03*
D13*
X59690000Y-12700000D03*
X59690000Y-15240000D03*
D12*
X59690000Y-17780000D03*
D14*
X19050000Y-20320000D03*
D10*
X26670000Y-12700000D03*
X21590000Y-20320000D03*
X24130000Y-12700000D03*
X24130000Y-20320000D03*
X21590000Y-12700000D03*
X26670000Y-20320000D03*
X19050000Y-12700000D03*
D12*
X3810000Y-10160000D03*
D13*
X6350000Y-10160000D03*
X3810000Y-12700000D03*
X6350000Y-12700000D03*
X3810000Y-15240000D03*
X6350000Y-15240000D03*
X3810000Y-17780000D03*
X6350000Y-17780000D03*
X11430000Y-10160000D03*
D12*
X11430000Y-12700000D03*
D13*
X52070000Y-10160000D03*
X52070000Y-12700000D03*
D12*
X52070000Y-15240000D03*
D10*
X16510000Y-2540000D03*
X26670000Y-10160000D03*
X19050000Y-2540000D03*
X24130000Y-10160000D03*
X21590000Y-2540000D03*
X21590000Y-10160000D03*
X24130000Y-2540000D03*
X19050000Y-10160000D03*
X26670000Y-2540000D03*
D14*
X16510000Y-10160000D03*
D15*
X29210000Y-10160000D02*
X26670000Y-12700000D01*
X31750000Y-10160000D02*
X29210000Y-10160000D01*
X37629999Y-3339999D02*
X36830000Y-2540000D01*
X40495001Y-6205001D02*
X37629999Y-3339999D01*
X40495001Y-11285001D02*
X40495001Y-6205001D01*
X41910000Y-12700000D02*
X40495001Y-11285001D01*
X36830000Y-12700000D02*
X36830000Y-10160000D01*
X24929999Y-1740001D02*
X24130000Y-2540000D01*
X25255001Y-1414999D02*
X24929999Y-1740001D01*
X40784999Y-1414999D02*
X25255001Y-1414999D01*
X41910000Y-2540000D02*
X40784999Y-1414999D01*
X42709999Y-10959999D02*
X41910000Y-10160000D01*
X43035001Y-11285001D02*
X42709999Y-10959999D01*
X45575001Y-11285001D02*
X43035001Y-11285001D01*
X46990000Y-12700000D02*
X45575001Y-11285001D01*
X47789999Y-10959999D02*
X46990000Y-10160000D01*
X48354999Y-11524999D02*
X47789999Y-10959999D01*
X58514999Y-11524999D02*
X48354999Y-11524999D01*
X59690000Y-12700000D02*
X58514999Y-11524999D01*
X49530000Y-5080000D02*
X46990000Y-2540000D01*
X57150000Y-5080000D02*
X49530000Y-5080000D01*
X45414990Y-964990D02*
X46190001Y-1740001D01*
X46190001Y-1740001D02*
X46990000Y-2540000D01*
X23165010Y-964990D02*
X45414990Y-964990D01*
X21590000Y-2540000D02*
X23165010Y-964990D01*
X25255001Y-11285001D02*
X24929999Y-10959999D01*
X24929999Y-10959999D02*
X24130000Y-10160000D01*
X25255001Y-19194999D02*
X25255001Y-11285001D01*
X24130000Y-20320000D02*
X25255001Y-19194999D01*
X19050000Y-10160000D02*
X19050000Y-2540000D01*
X5174999Y-11524999D02*
X5500001Y-11850001D01*
X5174999Y-7055999D02*
X5174999Y-11524999D01*
X5785999Y-6444999D02*
X5174999Y-7055999D01*
X10796410Y-11430000D02*
X7525001Y-8158591D01*
X12445002Y-11430000D02*
X10796410Y-11430000D01*
X14840003Y-13825001D02*
X12445002Y-11430000D01*
X19590001Y-13825001D02*
X14840003Y-13825001D01*
X7525001Y-8158591D02*
X7525001Y-7055999D01*
X20175001Y-13240001D02*
X19590001Y-13825001D01*
X6914001Y-6444999D02*
X5785999Y-6444999D01*
X20175001Y-12211409D02*
X20175001Y-13240001D01*
X20811411Y-11574999D02*
X20175001Y-12211409D01*
X21840003Y-11574999D02*
X20811411Y-11574999D01*
X22715001Y-10700001D02*
X21840003Y-11574999D01*
X22715001Y-9909997D02*
X22715001Y-10700001D01*
X23589999Y-9034999D02*
X22715001Y-9909997D01*
X5500001Y-11850001D02*
X6350000Y-12700000D01*
X32290001Y-9034999D02*
X23589999Y-9034999D01*
X32875001Y-9619999D02*
X32290001Y-9034999D01*
X7525001Y-7055999D02*
X6914001Y-6444999D01*
X32875001Y-11574999D02*
X32875001Y-9619999D01*
X31750000Y-12700000D02*
X32875001Y-11574999D01*
X20790001Y-10959999D02*
X21590000Y-10160000D01*
X20464999Y-11285001D02*
X20790001Y-10959999D01*
X18509999Y-11285001D02*
X20464999Y-11285001D01*
X17924999Y-10700001D02*
X18509999Y-11285001D01*
X17924999Y-9389997D02*
X17924999Y-10700001D01*
X13615002Y-5080000D02*
X17924999Y-9389997D01*
X6350000Y-5080000D02*
X13615002Y-5080000D01*
X60539999Y-8469999D02*
X59690000Y-7620000D01*
X61315011Y-9245011D02*
X60539999Y-8469999D01*
X61315011Y-13614989D02*
X61315011Y-9245011D01*
X59690000Y-15240000D02*
X61315011Y-13614989D01*
X59690000Y-7620000D02*
X57150000Y-7620000D01*
X52070000Y-10160000D02*
X52070000Y-7620000D01*
X60790000Y-10160000D02*
X59690000Y-10160000D01*
X60865001Y-10235001D02*
X60790000Y-10160000D01*
X60254001Y-13875001D02*
X60865001Y-13264001D01*
X59315997Y-13875001D02*
X60254001Y-13875001D01*
X58514999Y-14675999D02*
X59315997Y-13875001D01*
X58514999Y-17515001D02*
X58514999Y-14675999D01*
X58250000Y-17780000D02*
X58514999Y-17515001D01*
X60865001Y-13264001D02*
X60865001Y-10235001D01*
X57150000Y-17780000D02*
X58250000Y-17780000D01*
X59690000Y-10160000D02*
X57150000Y-10160000D01*
X32549999Y-21119999D02*
X31750000Y-20320000D01*
X40784999Y-21445001D02*
X32875001Y-21445001D01*
X32875001Y-21445001D02*
X32549999Y-21119999D01*
X41910000Y-20320000D02*
X40784999Y-21445001D01*
X56050000Y-17780000D02*
X57150000Y-17780000D01*
X48835997Y-21445001D02*
X52500998Y-17780000D01*
X52500998Y-17780000D02*
X56050000Y-17780000D01*
X43035001Y-21445001D02*
X48835997Y-21445001D01*
X41910000Y-20320000D02*
X43035001Y-21445001D01*
X31750000Y-20320000D02*
X26670000Y-20320000D01*
X25870001Y-21119999D02*
X26670000Y-20320000D01*
X25544999Y-21445001D02*
X25870001Y-21119999D01*
X22715001Y-21445001D02*
X25544999Y-21445001D01*
X21590000Y-20320000D02*
X22715001Y-21445001D01*
X6914001Y-3904999D02*
X3885001Y-3904999D01*
X6974003Y-3965001D02*
X6914001Y-3904999D01*
X3810000Y-3980000D02*
X3810000Y-5080000D01*
X15084999Y-3965001D02*
X6974003Y-3965001D01*
X3885001Y-3904999D02*
X3810000Y-3980000D01*
X16510000Y-2540000D02*
X15084999Y-3965001D01*
X3810000Y-5080000D02*
X3810000Y-7620000D01*
X3810000Y-7620000D02*
X3810000Y-10160000D01*
X3810000Y-10160000D02*
X3810000Y-12700000D01*
X6035999Y-21745001D02*
X2540000Y-18249002D01*
X12114001Y-21745001D02*
X6035999Y-21745001D01*
X14664003Y-19194999D02*
X12114001Y-21745001D01*
X21590000Y-20320000D02*
X20464999Y-19194999D01*
X20464999Y-19194999D02*
X14664003Y-19194999D01*
X2540000Y-13970000D02*
X3810000Y-12700000D01*
X2540000Y-18249002D02*
X2540000Y-13970000D01*
X6350000Y-7620000D02*
X6350000Y-10160000D01*
X8890000Y-10160000D02*
X11430000Y-12700000D01*
X6350000Y-10160000D02*
X8890000Y-10160000D01*
X11430000Y-13800000D02*
X11430000Y-12700000D01*
X11905010Y-14275010D02*
X11430000Y-13800000D01*
X22554990Y-14275010D02*
X11905010Y-14275010D01*
X24130000Y-12700000D02*
X22554990Y-14275010D01*
X11430000Y-10160000D02*
X16510000Y-10160000D01*
X46990000Y-17780000D02*
X46990000Y-20320000D01*
X52070000Y-12700000D02*
X46990000Y-17780000D01*
X37629999Y-19520001D02*
X36830000Y-20320000D01*
X37955001Y-19194999D02*
X37629999Y-19520001D01*
X45864999Y-19194999D02*
X37955001Y-19194999D01*
X46990000Y-20320000D02*
X45864999Y-19194999D01*
M02*
