M48
; DRILL file {KiCad 5.1.5-52549c5~84~ubuntu18.04.1} date 2020年02月01日 12時36分13秒
; FORMAT={-:-/ absolute / metric / decimal}
; #@! TF.CreationDate,2020-02-01T12:36:13+09:00
; #@! TF.GenerationSoftware,Kicad,Pcbnew,5.1.5-52549c5~84~ubuntu18.04.1
; #@! TF.FileFunction,Plated,1,2,PTH
FMAT,2
METRIC
T1C0.800
T2C1.000
%
G90
G05
T1
X34.29Y-20.32
X39.37Y-10.16
X46.99Y-12.7
X46.99Y-20.32
X39.37Y-20.32
X39.37Y-2.54
X44.45Y-20.32
X44.45Y-10.16
X41.91Y-12.7
X41.91Y-20.32
X36.83Y-2.54
X36.83Y-10.16
X31.75Y-2.54
X31.75Y-10.16
X44.45Y-2.54
X16.51Y-2.54
X16.51Y-10.16
X19.05Y-2.54
X19.05Y-10.16
X21.59Y-2.54
X21.59Y-10.16
X24.13Y-2.54
X24.13Y-10.16
X26.67Y-2.54
X26.67Y-10.16
X46.99Y-2.54
X46.99Y-10.16
X39.37Y-12.7
X34.29Y-10.16
X31.75Y-12.7
X31.75Y-20.32
X36.83Y-12.7
X36.83Y-20.32
X34.29Y-12.7
X34.29Y-2.54
X19.05Y-12.7
X19.05Y-20.32
X21.59Y-12.7
X21.59Y-20.32
X24.13Y-12.7
X24.13Y-20.32
X26.67Y-12.7
X26.67Y-20.32
X41.91Y-2.54
X41.91Y-10.16
X44.45Y-12.7
T2
X59.69Y-7.62
X59.69Y-10.16
X52.07Y-7.62
X3.81Y-10.16
X3.81Y-12.7
X3.81Y-15.24
X3.81Y-17.78
X6.35Y-10.16
X6.35Y-12.7
X6.35Y-15.24
X6.35Y-17.78
X59.69Y-5.08
X11.43Y-10.16
X11.43Y-12.7
X3.81Y-7.62
X6.35Y-7.62
X59.69Y-12.7
X59.69Y-15.24
X59.69Y-17.78
X3.81Y-5.08
X6.35Y-5.08
X52.07Y-10.16
X52.07Y-12.7
X52.07Y-15.24
X57.15Y-5.08
X57.15Y-7.62
X57.15Y-10.16
X57.15Y-12.7
X57.15Y-15.24
X57.15Y-17.78
T0
M30
